<svg width="32" height="32" viewBox="0 0 32 32" fill="none" xmlns="http://www.w3.org/2000/svg">
<g id="Heart">
<g id="Iconly/Bulk/Heart">
<g id="Heart_2">
<path id="Path_34179" opacity="0.4" d="M15.7009 29.1166C12.6568 27.2364 9.82709 25.0194 7.26344 22.5061C5.4536 20.7117 4.07141 18.5206 3.22248 16.1004C1.70563 11.3803 3.47133 5.98597 8.40107 4.38453C11.0031 3.56737 13.833 4.06901 16.009 5.73311C18.1858 4.07087 21.0148 3.5694 23.6169 4.38453C28.5466 5.98597 30.3242 11.3803 28.8073 16.1004C27.9653 18.5183 26.5914 20.7092 24.7901 22.5061C22.2241 25.0166 19.3947 27.2334 16.3526 29.1166L16.0208 29.3333L15.7009 29.1166Z" fill="#F75252"/>
<path id="Path_34178" d="M16.0144 29.3333L15.7012 29.1166C12.6533 27.2365 9.81967 25.0195 7.25186 22.5061C5.43344 20.7141 4.04302 18.5229 3.1872 16.1003C1.6822 11.3803 3.4479 5.98593 8.37764 4.38449C10.9797 3.56734 13.8469 4.06935 16.0144 5.74739V29.3333Z" fill="#F75252"/>
<path id="Path_34180" d="M24.3074 13.3323C24.0396 13.3151 23.7902 13.1812 23.6176 12.9621C23.445 12.743 23.3644 12.4579 23.3947 12.1735C23.4237 11.2371 22.8909 10.3847 22.0691 10.053C21.5481 9.91079 21.2325 9.34649 21.3629 8.78998C21.4866 8.24243 21.9993 7.90196 22.5146 8.02521C22.5797 8.036 22.6423 8.05957 22.6993 8.09473C24.3469 8.72877 25.4137 10.4352 25.3288 12.301C25.3261 12.5838 25.2158 12.8533 25.0233 13.0477C24.8307 13.2422 24.5723 13.3449 24.3074 13.3323Z" fill="#F75252"/>
</g>
</g>
<rect x="0.333333" y="0.333333" width="31.3333" height="31.3333" stroke="#FFFBF8" stroke-width="0.666667"/>
</g>
</svg>
