<svg width="32" height="32" viewBox="0 0 32 32" fill="none" xmlns="http://www.w3.org/2000/svg">
<g id="Location">
<g id="Iconly/Bulk/Location">
<g id="Location_2">
<path id="Path_34175" d="M11.3753 3.91565C14.2885 2.22299 17.8692 2.25258 20.755 3.99315C23.6125 5.76918 25.3491 8.93886 25.3331 12.3485C25.2664 15.7359 23.4042 18.92 21.0765 21.3814C19.7329 22.8085 18.23 24.0704 16.5983 25.1413C16.4302 25.2385 16.2462 25.3036 16.0551 25.3333C15.8713 25.3255 15.6923 25.2711 15.5342 25.1752C13.0431 23.566 10.8576 21.512 9.08294 19.1119C7.59795 17.1084 6.75428 14.688 6.6665 12.1792L6.67315 11.8142C6.7944 8.53949 8.56623 5.54786 11.3753 3.91565ZM17.2095 9.37966C16.0253 8.87627 14.6599 9.14976 13.7509 10.0724C12.842 10.9951 12.5687 12.3849 13.0587 13.593C13.5488 14.8011 14.7054 15.5891 15.9886 15.5891C16.8293 15.5951 17.6374 15.2584 18.2329 14.6539C18.8284 14.0495 19.1618 13.2275 19.1589 12.3711C19.1633 11.064 18.3938 9.88304 17.2095 9.37966Z" fill="#F75252"/>
<path id="Ellipse_743" opacity="0.4" d="M16.0002 29.3333C19.6821 29.3333 22.6668 28.7363 22.6668 28C22.6668 27.2636 19.6821 26.6666 16.0002 26.6666C12.3183 26.6666 9.3335 27.2636 9.3335 28C9.3335 28.7363 12.3183 29.3333 16.0002 29.3333Z" fill="#F75252"/>
</g>
</g>
<rect x="0.333333" y="0.333333" width="31.3333" height="31.3333" stroke="#FFFBF8" stroke-width="0.666667"/>
</g>
</svg>
