<svg width="32" height="32" viewBox="0 0 32 32" fill="none" xmlns="http://www.w3.org/2000/svg">
<g id="Notification">
<g id="Iconly/Bulk/Notification">
<g id="Notification_2">
<path id="Fill-1" d="M26.3592 15.5271C25.3852 14.3897 24.9426 13.404 24.9426 11.7295V11.1601C24.9426 8.97801 24.4404 7.57205 23.3484 6.16609C21.6655 3.98262 18.8323 2.66663 16.0588 2.66663H15.9409C13.2256 2.66663 10.4813 3.92219 8.76916 6.01703C7.61761 7.45119 7.05707 8.91758 7.05707 11.1601V11.7295C7.05707 13.404 6.64363 14.3897 5.64049 15.5271C4.90238 16.365 4.6665 17.442 4.6665 18.6076C4.6665 19.7745 5.04947 20.8797 5.81806 21.778C6.8212 22.855 8.23778 23.5425 9.68484 23.662C11.7799 23.9011 13.875 23.991 16.0005 23.991C18.1247 23.991 20.2198 23.8406 22.3162 23.662C23.7619 23.5425 25.1785 22.855 26.1816 21.778C26.9489 20.8797 27.3332 19.7745 27.3332 18.6076C27.3332 17.442 27.0973 16.365 26.3592 15.5271Z" fill="#F75252"/>
<path id="Fill-4" opacity="0.4" d="M18.6783 25.6379C18.0118 25.4955 13.9502 25.4955 13.2837 25.6379C12.7139 25.7695 12.0977 26.0757 12.0977 26.7471C12.1308 27.3876 12.5058 27.953 13.0253 28.3115L13.0239 28.3128C13.6958 28.8365 14.4842 29.1696 15.3098 29.2891C15.7498 29.3495 16.1977 29.3468 16.6535 29.2891C17.4778 29.1696 18.2662 28.8365 18.9381 28.3128L18.9367 28.3115C19.4562 27.953 19.8312 27.3876 19.8644 26.7471C19.8644 26.0757 19.2482 25.7695 18.6783 25.6379Z" fill="#F75252"/>
</g>
</g>
<rect x="0.333333" y="0.333333" width="31.3333" height="31.3333" stroke="#FFFBF8" stroke-width="0.666667"/>
</g>
</svg>
