<svg width="49" height="49" viewBox="0 0 49 49" fill="none" xmlns="http://www.w3.org/2000/svg">
<g id="Wallet">
<g id="Iconly/Bulk/Wallet">
<g id="Wallet_2">
<path id="Fill-1" d="M34.0134 6.94238C40.9058 6.94238 44.9787 10.8996 44.9787 17.6181V17.6926H36.5094C32.5681 17.6996 29.3752 20.8127 29.3681 24.6555C29.3627 28.507 32.5592 31.634 36.5094 31.6392H44.9858V32.2511C44.9858 38.9695 40.9129 42.9424 34.0205 42.9424H15.953C9.05873 42.9424 4.98584 38.9695 4.98584 32.2511V17.6181C4.98584 10.8996 9.05873 6.94238 15.953 6.94238H34.0134ZM25.7521 14.6922H14.465C13.6258 14.6957 12.945 15.3595 12.9414 16.1794C12.9378 17.0028 13.6205 17.6736 14.465 17.677H25.7663C26.6107 17.6736 27.2934 17.0028 27.2899 16.1777C27.2863 15.3543 26.5965 14.6887 25.7521 14.6922Z" fill="#F75252"/>
<path id="Fill-4" opacity="0.4" d="M33.0607 25.5358C33.4789 27.4381 35.1468 28.7766 37.051 28.7418H43.5509C44.3432 28.7418 44.9858 28.0856 44.9858 27.2745V22.2114C44.9841 21.4021 44.3432 20.7442 43.5509 20.7424H36.898C34.732 20.7494 32.9824 22.5473 32.9858 24.763C32.9858 25.0223 33.0114 25.2817 33.0607 25.5358Z" fill="#F75252"/>
<path id="Oval" d="M36.9858 26.7424C38.0904 26.7424 38.9858 25.847 38.9858 24.7424C38.9858 23.6379 38.0904 22.7424 36.9858 22.7424C35.8813 22.7424 34.9858 23.6379 34.9858 24.7424C34.9858 25.847 35.8813 26.7424 36.9858 26.7424Z" fill="#F75252"/>
</g>
</g>
</g>
</svg>
