<svg width="32" height="32" viewBox="0 0 32 32" fill="none" xmlns="http://www.w3.org/2000/svg">
<g id="Home">
<g id="Iconly/Bulk/Home">
<g id="Home_2">
<path id="Vector" d="M12.1913 27.7096V23.6204C12.1913 22.5842 13.0339 21.7424 14.0776 21.7358H17.9098C18.9582 21.7358 19.808 22.5796 19.808 23.6204V27.6977C19.808 28.5965 20.5384 29.3269 21.4436 29.3334H24.0581C25.2792 29.3365 26.4513 28.8571 27.3159 28.001C28.1805 27.1449 28.6663 25.9824 28.6663 24.7701V13.1545C28.6663 12.1753 28.2291 11.2464 27.4725 10.6181L18.5903 3.56577C17.0377 2.33224 14.8202 2.37209 13.3135 3.66059L4.62236 10.6181C3.83 11.2278 3.35641 12.1595 3.33301 13.1545V24.7583C3.33301 27.285 5.39618 29.3334 7.94124 29.3334H10.4961C10.9319 29.3365 11.351 29.1668 11.6603 28.862C11.9696 28.5571 12.1436 28.1423 12.1436 27.7096H12.1913Z" fill="#BECDD9"/>
</g>
</g>
<rect x="0.333333" y="0.333333" width="31.3333" height="31.3333" stroke="#FFFBF8" stroke-width="0.666667"/>
</g>
</svg>
