<svg width="18" height="18" viewBox="0 0 18 18" fill="none" xmlns="http://www.w3.org/2000/svg">
<g id="Send">
<g id="Iconly/Bulk/Send">
<g id="Send_2">
<path id="Fill-1" d="M15.8743 2.13029C15.5097 1.75769 14.9702 1.61988 14.467 1.76571L2.73474 5.15561C2.20391 5.3029 1.82766 5.72363 1.7263 6.25738C1.62276 6.80134 1.98443 7.49259 2.45693 7.78134L6.12537 10.0213C6.50162 10.2518 6.98724 10.1941 7.29859 9.88206L11.4993 5.68134C11.7108 5.46186 12.0608 5.46186 12.2722 5.68134C12.4837 5.89206 12.4837 6.2355 12.2722 6.45425L8.06422 10.655C7.75214 10.9671 7.6938 11.4512 7.92349 11.8282L10.1649 15.5105C10.4274 15.9473 10.8795 16.1959 11.3754 16.1959C11.4337 16.1959 11.4993 16.1959 11.5577 16.1879C12.1264 16.1157 12.5785 15.7285 12.7462 15.1816L16.2243 3.53759C16.3774 3.04175 16.2389 2.50217 15.8743 2.13029Z" fill="#F75252"/>
<path id="Combined-Shape" opacity="0.4" d="M7.14186 14.2078C7.35478 14.4215 7.35478 14.7678 7.14186 14.9815L6.14582 15.9768C6.03936 16.084 5.89936 16.1372 5.75936 16.1372C5.61936 16.1372 5.47936 16.084 5.37291 15.9768C5.15926 15.7631 5.15926 15.4175 5.37291 15.2039L6.36822 14.2078C6.58186 13.9949 6.92822 13.9949 7.14186 14.2078ZM6.57042 11.4457C6.78333 11.6594 6.78333 12.0057 6.57042 12.2194L5.57437 13.2147C5.46792 13.3219 5.32792 13.3751 5.18792 13.3751C5.04792 13.3751 4.90792 13.3219 4.80146 13.2147C4.58781 13.001 4.58781 12.6554 4.80146 12.4418L5.79677 11.4457C6.01042 11.2328 6.35677 11.2328 6.57042 11.4457ZM3.82787 10.5763C4.04079 10.7899 4.04079 11.1363 3.82787 11.3499L2.83183 12.3452C2.72537 12.4524 2.58537 12.5057 2.44537 12.5057C2.30537 12.5057 2.16537 12.4524 2.05892 12.3452C1.84527 12.1316 1.84527 11.786 2.05892 11.5723L3.05423 10.5763C3.26787 10.3634 3.61423 10.3634 3.82787 10.5763Z" fill="#F75252"/>
</g>
</g>
</g>
</svg>
