<svg width="32" height="32" viewBox="0 0 32 32" fill="none" xmlns="http://www.w3.org/2000/svg">
<g id="Wallet">
<g id="Iconly/Bulk/Wallet">
<g id="Wallet_2">
<path id="Fill-1" d="M22.0182 4C26.6132 4 29.3284 6.63816 29.3284 11.1171V11.1668H23.6822C21.0547 11.1715 18.9261 13.2469 18.9213 15.8088C18.9178 18.3764 21.0487 20.4611 23.6822 20.4645H29.3332V20.8725C29.3332 25.3514 26.6179 28 22.0229 28H9.97791C5.38176 28 2.6665 25.3514 2.6665 20.8725V11.1171C2.6665 6.63816 5.38176 4 9.97791 4H22.0182ZM16.5107 9.16654H8.98591C8.4265 9.16886 7.97258 9.61144 7.9702 10.158C7.96784 10.7069 8.42295 11.1541 8.98591 11.1564H16.5201C17.0831 11.1541 17.5382 10.7069 17.5358 10.1569C17.5335 9.60797 17.0736 9.16424 16.5107 9.16654Z" fill="#BECDD9"/>
<path id="Fill-4" opacity="0.4" d="M21.3829 16.3955C21.6617 17.6638 22.7736 18.556 24.0431 18.5328H28.3764C28.9046 18.5328 29.333 18.0954 29.333 17.5547V14.1793C29.3319 13.6397 28.9046 13.2011 28.3764 13.2H23.9411C22.4971 13.2046 21.3307 14.4032 21.333 15.8803C21.333 16.0532 21.35 16.2261 21.3829 16.3955Z" fill="#BECDD9"/>
<path id="Oval" d="M23.9998 17.2C24.7362 17.2 25.3332 16.603 25.3332 15.8667C25.3332 15.1303 24.7362 14.5333 23.9998 14.5333C23.2635 14.5333 22.6665 15.1303 22.6665 15.8667C22.6665 16.603 23.2635 17.2 23.9998 17.2Z" fill="#BECDD9"/>
</g>
</g>
</g>
</svg>
