<svg width="109" height="21" viewBox="0 0 109 21" fill="none" xmlns="http://www.w3.org/2000/svg">
<path d="M19.2353 6.75962L11.305 0.452117C10.9371 0.159379 10.4809 0 10.0107 0C9.54061 0 9.08435 0.159379 8.71647 0.452117L0.784992 6.75962C0.539405 6.95488 0.341207 7.20321 0.205259 7.48598C0.0693116 7.76875 -0.000858515 8.07863 7.92728e-06 8.39238V17.242C7.92728e-06 18.0551 0.323014 18.8349 0.897969 19.4098C1.47292 19.9848 2.25273 20.3078 3.06584 20.3078H6.22838L8.33842 18.194L8.08722 17.9428H4.4449C4.17193 17.9428 3.90163 17.889 3.64944 17.7846C3.39725 17.6801 3.1681 17.527 2.97508 17.334C2.78206 17.141 2.62895 16.9118 2.52449 16.6596C2.42003 16.4074 2.36626 16.1371 2.36626 15.8642V9.52779C2.3654 9.21403 2.43557 8.90415 2.57151 8.62138C2.70746 8.33861 2.90566 8.09029 3.15125 7.89502L8.71521 3.47022C9.0831 3.17748 9.53935 3.01811 10.0095 3.01811C10.4796 3.01811 10.9359 3.17748 11.3038 3.47022L16.8677 7.89502C17.1133 8.09029 17.3115 8.33861 17.4475 8.62138C17.5834 8.90415 17.6536 9.21403 17.6527 9.52779V15.8554C17.6527 16.1284 17.599 16.3986 17.4945 16.6508C17.39 16.903 17.2369 17.1322 17.0439 17.3252C16.8509 17.5182 16.6217 17.6713 16.3695 17.7758C16.1174 17.8803 15.8471 17.934 15.5741 17.934H11.9318L9.56676 20.3015H16.9494C17.3519 20.3015 17.7505 20.2222 18.1224 20.0681C18.4943 19.914 18.8322 19.6882 19.1168 19.4035C19.4014 19.1188 19.6271 18.7808 19.781 18.4088C19.935 18.0369 20.0141 17.6382 20.014 17.2357V8.3861C20.0146 8.07392 19.945 7.7656 19.8102 7.48402C19.6754 7.20245 19.4789 6.95485 19.2353 6.75962Z" fill="#F75252"/>
<path d="M15.1294 11.3917C15.0622 11.0763 14.965 10.768 14.8392 10.471C14.543 9.75722 14.0923 9.11795 13.5194 8.59921C12.9466 8.08048 12.2659 7.69518 11.5262 7.47105C10.7866 7.24692 10.0065 7.18953 9.2421 7.30302C8.47766 7.4165 7.74788 7.69802 7.10527 8.12734C6.46267 8.55666 5.92322 9.12309 5.52576 9.78587C5.1283 10.4486 4.8827 11.1913 4.80664 11.9604C4.73057 12.7294 4.82594 13.5058 5.08588 14.2336C5.34582 14.9614 5.76385 15.6225 6.30991 16.1694L8.33454 18.194L6.22451 20.3078H9.56917L11.9342 17.9403L13.1185 16.7559L13.7277 16.1455C14.697 15.1696 15.2392 13.8486 15.2349 12.4731C15.2371 12.1099 15.2017 11.7475 15.1294 11.3917ZM12.0346 14.4901L10.0125 16.5135L8.37097 14.8669L7.99417 14.4901C7.72022 14.2264 7.5016 13.9107 7.35109 13.5614C7.20058 13.2122 7.12121 12.8364 7.1176 12.4562C7.114 12.0759 7.18624 11.6987 7.3301 11.3467C7.47397 10.9947 7.68657 10.6749 7.95547 10.406C8.22438 10.137 8.54419 9.92445 8.89622 9.78058C9.24825 9.63672 9.62542 9.56448 10.0057 9.56808C10.386 9.57168 10.7617 9.65106 11.1109 9.80157C11.4602 9.95208 11.7759 10.1707 12.0397 10.4447C12.167 10.5723 12.2822 10.7114 12.3838 10.8604C12.7575 11.411 12.9276 12.0747 12.8648 12.7372C12.802 13.3997 12.5102 14.0196 12.0397 14.4901H12.0346Z" fill="#FAB0A8"/>
<path d="M38.6063 19.1096C38.5464 18.8854 38.5094 18.6556 38.4958 18.4239C38.4799 18.1727 38.4715 17.9127 38.4707 17.6439V12.5773C38.4707 11.7115 38.2295 10.9889 37.7472 10.4095C37.2383 9.81096 36.5762 9.36206 35.8319 9.11081C34.9873 8.81733 34.0984 8.67242 33.2044 8.68252C32.2654 8.66724 31.3318 8.82696 30.4513 9.15351C29.6979 9.42718 29.0359 9.90565 28.5397 10.5351C28.0758 11.1396 27.8439 11.8777 27.8439 12.7494H30.5656C30.5656 12.108 30.7908 11.6387 31.2413 11.3414C31.6918 11.0442 32.339 10.896 33.183 10.8968C33.9852 10.8968 34.6065 11.0291 35.0469 11.2937C35.2501 11.4033 35.4191 11.5668 35.5354 11.7662C35.6517 11.9656 35.7109 12.1933 35.7063 12.4241V12.4442C35.7063 12.7029 35.4551 12.8888 34.9527 13.0043C34.4503 13.1199 33.5535 13.2342 32.2825 13.3598C31.4808 13.4236 30.6917 13.5977 29.9376 13.8772C29.2889 14.1076 28.7102 14.5007 28.2571 15.0189C27.8426 15.5113 27.6333 16.1392 27.6291 16.9029C27.6113 17.5415 27.7983 18.1692 28.1629 18.6939C28.5392 19.202 29.0511 19.5938 29.6399 19.8243C30.3361 20.0985 31.0797 20.2321 31.8278 20.2174C32.4826 20.2232 33.1349 20.1348 33.7645 19.9549C34.3151 19.8008 34.8343 19.5508 35.2981 19.2164C35.4802 19.081 35.6485 18.9278 35.8005 18.7592C35.83 18.9088 35.8686 19.0564 35.916 19.2013C35.9783 19.376 36.0574 19.5443 36.1521 19.7037C36.2097 19.8064 36.2779 19.9028 36.3556 19.9913H39.0773C38.991 19.8941 38.9141 19.789 38.8475 19.6773C38.7422 19.4997 38.6611 19.3087 38.6063 19.1096ZM35.7276 15.2776C35.7276 15.9199 35.5773 16.4453 35.2767 16.8539C34.9759 17.2606 34.5655 17.5734 34.0936 17.7557C33.5867 17.954 33.0465 18.0534 32.5023 18.0483C31.7973 18.0483 31.2706 17.9332 30.9223 17.7029C30.7515 17.5916 30.6131 17.4372 30.5211 17.2552C30.4292 17.0733 30.3869 16.8703 30.3985 16.6667C30.3878 16.4524 30.4419 16.2397 30.554 16.0567C30.666 15.8736 30.8307 15.7286 31.0265 15.6406C31.441 15.4305 32.0602 15.2873 32.8841 15.2111C33.5272 15.1483 34.1614 15.0629 34.7907 14.9599C35.1306 14.9004 35.4446 14.8326 35.7326 14.7564L35.7276 15.2776Z" fill="#F75252"/>
<path d="M48.6354 10.1897C48.316 9.85062 47.9492 9.55957 47.5464 9.32559C46.8126 8.8987 45.9776 8.67662 45.1287 8.68253C44.248 8.67771 43.3815 8.90515 42.6167 9.34191C41.8209 9.79975 41.1685 10.4704 40.7328 11.2786C40.2547 12.1302 40.0156 13.1701 40.0156 14.3985C40.0156 15.662 40.2497 16.7262 40.7177 17.5912C41.1406 18.41 41.7886 19.0911 42.5853 19.5542C43.3583 19.9963 44.2345 20.226 45.1249 20.2199C45.9945 20.2302 46.8487 19.99 47.5854 19.5279C47.9732 19.2847 48.3253 18.9888 48.6316 18.6487V20.289H51.3947V3.62598H48.6316L48.6354 10.1897ZM48.2322 16.4143C47.9717 16.8322 47.6102 17.1777 47.181 17.4191C46.6302 17.7236 45.9962 17.8431 45.3723 17.7601C44.7485 17.6771 44.1678 17.396 43.7157 16.9581C43.1489 16.4072 42.8658 15.5523 42.8667 14.3934C42.8675 13.2346 43.1505 12.3814 43.7157 11.8338C43.9867 11.5693 44.3076 11.3614 44.6597 11.2221C45.0118 11.0828 45.3881 11.0149 45.7667 11.0224C46.2492 11.0225 46.7241 11.143 47.1483 11.3728C47.579 11.602 47.9459 11.9348 48.2159 12.3412C48.4962 12.7704 48.6402 13.2743 48.6291 13.7868V14.9272C48.6419 15.4507 48.5042 15.9668 48.2322 16.4143Z" fill="#F75252"/>
<path d="M61.7011 10.1897C61.3817 9.85062 61.0149 9.55957 60.6122 9.32559C59.8779 8.89854 59.0425 8.67645 58.1932 8.68253C57.3125 8.67801 56.4461 8.90543 55.6812 9.34191C54.885 9.79927 54.2324 10.4701 53.7972 11.2786C53.3183 12.1302 53.0792 13.1701 53.0801 14.3985C53.0801 15.662 53.3137 16.7262 53.7809 17.5912C54.2063 18.4115 54.8579 19.0928 55.6586 19.5542C56.4311 19.9963 57.3069 20.226 58.1969 20.2199C59.0666 20.2307 59.9208 19.9904 60.6574 19.5279C61.0454 19.2844 61.3979 18.9886 61.7049 18.6487V20.289H64.468V3.62598H61.7049L61.7011 10.1897ZM61.2979 16.4143C61.0373 16.8325 60.6753 17.1781 60.2454 17.4191C59.6946 17.7236 59.0606 17.8431 58.4368 17.7601C57.8129 17.6771 57.2322 17.396 56.7802 16.9581C56.215 16.4072 55.9324 15.5523 55.9324 14.3934C55.9324 13.2346 56.215 12.3814 56.7802 11.8338C57.0514 11.5693 57.3725 11.3613 57.7249 11.2221C58.0772 11.0828 58.4537 11.0149 58.8324 11.0224C59.315 11.022 59.79 11.1425 60.214 11.3728C60.6454 11.6016 61.0127 11.9345 61.2829 12.3412C61.5631 12.7704 61.7072 13.2743 61.6961 13.7868V14.9272C61.7085 15.4508 61.5703 15.967 61.2979 16.4143Z" fill="#F75252"/>
<path d="M72.5683 8.91236C72.0459 8.90299 71.5267 8.99557 71.0397 9.18491C70.6105 9.35312 70.2215 9.60989 69.8981 9.93849C69.7071 10.1362 69.5386 10.3544 69.3957 10.5891V9.10076H66.6426V20.2199H69.3957V14.6936C69.3966 14.3034 69.4459 13.9149 69.5426 13.5369C69.6377 13.155 69.8006 12.7934 70.0237 12.4693C70.2548 12.1383 70.5665 11.8716 70.9292 11.6943C71.3733 11.4889 71.8594 11.3904 72.3485 11.4067C72.6368 11.3971 72.9249 11.4345 73.2013 11.5173C73.3493 11.5616 73.4917 11.6227 73.6258 11.6994L74.1282 9.17737C73.9735 9.10209 73.8097 9.04721 73.6409 9.01409C73.2885 8.9384 72.9285 8.90426 72.5683 8.91236Z" fill="#F75252"/>
<path d="M83.722 9.4047C82.8462 8.91655 81.8079 8.67205 80.6072 8.67121C79.5297 8.65066 78.4642 8.90115 77.5087 9.39968C76.6297 9.86381 75.8989 10.5658 75.3999 11.4256C74.8975 12.2914 74.6463 13.2999 74.6463 14.4512C74.6288 15.4983 74.8888 16.5314 75.3999 17.4454C75.8902 18.3088 76.6142 19.0162 77.4886 19.4864C78.3812 19.9754 79.4245 20.2199 80.6185 20.2199C81.4139 20.2317 82.2065 20.1238 82.9697 19.8996C83.6006 19.7165 84.1954 19.4263 84.728 19.0418C85.1792 18.7172 85.5631 18.3082 85.8584 17.8373C86.1103 17.4222 86.2629 16.9546 86.3043 16.4708H83.56C83.5339 16.6655 83.4644 16.8518 83.3565 17.0159C83.2202 17.2157 83.0456 17.3864 82.8428 17.5183C82.5746 17.6953 82.2768 17.8229 81.9636 17.8951C81.5488 17.9921 81.1236 18.0376 80.6976 18.0307C80.0606 18.0512 79.4298 17.9012 78.8702 17.5962C78.3718 17.3054 77.9766 16.8663 77.7398 16.3402C77.5879 16.0128 77.4826 15.6657 77.4271 15.309H86.4186C86.4363 15.1875 86.4468 15.0651 86.45 14.9423C86.4563 14.7752 86.46 14.6183 86.46 14.4713C86.46 13.32 86.2227 12.3098 85.7479 11.4406C85.2828 10.581 84.5793 9.87402 83.722 9.4047ZM77.4522 13.351C77.5138 13.0458 77.6156 12.7502 77.7549 12.4718C78.0056 11.9608 78.4032 11.5361 78.8966 11.2522C79.4295 10.9594 80.0307 10.8134 80.6386 10.829C81.3151 10.829 81.8736 10.9596 82.3141 11.2208C82.7333 11.4621 83.0749 11.8181 83.2987 12.247C83.4753 12.5906 83.5816 12.9659 83.6115 13.351H77.4522Z" fill="#F75252"/>
<path d="M96.2808 14.3357C95.8295 14.0837 95.3497 13.8868 94.8515 13.7491C94.3434 13.6053 93.8276 13.4899 93.3066 13.4037C92.8272 13.3259 92.3522 13.2228 91.8836 13.0948C91.5385 13.0104 91.212 12.8631 90.9203 12.6602C90.814 12.5812 90.7275 12.4787 90.6675 12.3606C90.6075 12.2425 90.5758 12.1122 90.5747 11.9798C90.5736 11.8473 90.6032 11.7165 90.6612 11.5974C90.7192 11.4784 90.804 11.3744 90.909 11.2937C91.1598 11.119 91.4457 11.0011 91.7467 10.9483C92.0677 10.884 92.3941 10.8508 92.7214 10.8491C93.0651 10.8474 93.4071 10.8969 93.7362 10.996C94.0311 11.0785 94.3008 11.233 94.5212 11.4457C94.6226 11.5492 94.7019 11.6723 94.7541 11.8075C94.8064 11.9427 94.8306 12.0871 94.8251 12.2319V12.3676H97.5468V12.2005C97.5634 11.5072 97.3232 10.8322 96.8724 10.3052C96.3912 9.76063 95.7804 9.34633 95.0964 9.10077C94.3365 8.81727 93.5311 8.67551 92.7201 8.68253C91.8923 8.67326 91.0689 8.80406 90.2848 9.06937C89.61 9.2862 89.0038 9.67591 88.5264 10.1997C88.0851 10.7122 87.8517 11.3713 87.872 12.0473C87.8554 12.542 87.9866 13.0304 88.2488 13.4502C88.5128 13.8419 88.8597 14.1708 89.2649 14.4135C89.7055 14.6793 90.1788 14.8866 90.6729 15.0302C91.1883 15.1843 91.7126 15.3067 92.2428 15.397C93.2058 15.5502 93.9124 15.7214 94.3629 15.9107C94.8134 16.0999 95.0386 16.4139 95.0386 16.8526C95.0412 16.9813 95.0137 17.1089 94.9583 17.2251C94.9029 17.3413 94.8212 17.443 94.7196 17.5221C94.4729 17.7125 94.1866 17.8451 93.8819 17.9102C93.5201 17.9954 93.1495 18.0375 92.7779 18.0358C92.0578 18.0358 91.4905 17.9223 91.076 17.6954C90.8836 17.6044 90.7218 17.4594 90.6104 17.2781C90.4989 17.0968 90.4425 16.8871 90.4481 16.6743V16.4859H87.7163V16.727C87.7065 17.2573 87.8462 17.7797 88.1195 18.2342C88.3964 18.6788 88.7726 19.0533 89.2185 19.3282C89.7095 19.6331 90.247 19.8558 90.8098 19.9876C91.4266 20.1368 92.0591 20.211 92.6937 20.2086C93.3223 20.2132 93.9494 20.1487 94.5639 20.0164C95.1327 19.8946 95.6784 19.6826 96.1803 19.3885C96.6358 19.1242 97.0229 18.7568 97.3107 18.3158C97.6008 17.8464 97.7479 17.3026 97.734 16.7509C97.7517 16.2347 97.611 15.7254 97.3308 15.2915C97.0594 14.8959 96.7 14.5688 96.2808 14.3357Z" fill="#F75252"/>
<path d="M108.608 15.294C108.336 14.8973 107.976 14.5693 107.555 14.3356C107.104 14.0837 106.624 13.8867 106.126 13.7491C105.618 13.6054 105.103 13.4901 104.583 13.4037C104.103 13.3259 103.627 13.2228 103.158 13.0947C102.813 13.0104 102.487 12.863 102.195 12.6602C102.086 12.5834 101.998 12.4813 101.938 12.3627C101.878 12.244 101.847 12.1125 101.85 11.9794C101.844 11.8463 101.872 11.7139 101.931 11.5942C101.989 11.4745 102.077 11.3712 102.185 11.2937C102.436 11.1187 102.722 11.0008 103.023 10.9483C103.343 10.884 103.669 10.8507 103.996 10.8491C104.34 10.8473 104.682 10.8968 105.011 10.996C105.306 11.0785 105.576 11.233 105.796 11.4456C105.897 11.549 105.977 11.6721 106.029 11.8073C106.081 11.9426 106.105 12.087 106.1 12.2319V12.3675H108.822V12.2005C108.838 11.5072 108.598 10.8322 108.147 10.3052C107.666 9.76078 107.056 9.34649 106.372 9.10075C105.613 8.81714 104.807 8.67538 103.996 8.68251C103.169 8.67314 102.346 8.80394 101.562 9.06935C100.887 9.28639 100.281 9.67607 99.8036 10.1997C99.3623 10.7122 99.1289 11.3713 99.1493 12.0473C99.132 12.542 99.2633 13.0306 99.526 13.4502C99.7892 13.8421 100.136 14.1711 100.541 14.4135C100.981 14.6793 101.455 14.8866 101.949 15.0302C102.465 15.1842 102.989 15.3067 103.52 15.3969C104.483 15.5502 105.19 15.7214 105.64 15.9106C106.091 16.0999 106.315 16.4139 106.315 16.8526C106.317 16.9813 106.29 17.1088 106.234 17.2251C106.179 17.3413 106.097 17.443 105.996 17.5221C105.749 17.7124 105.463 17.8451 105.158 17.9102C104.796 17.9953 104.425 18.0375 104.054 18.0357C103.334 18.0357 102.766 17.9223 102.352 17.6954C102.16 17.6042 101.998 17.4593 101.887 17.278C101.775 17.0967 101.719 16.887 101.724 16.6743V16.4859H98.9897V16.727C98.9799 17.2573 99.1196 17.7796 99.3929 18.2342C99.6699 18.6792 100.047 19.0537 100.493 19.3281C100.984 19.6335 101.522 19.8563 102.084 19.9875C102.701 20.1369 103.334 20.2111 103.968 20.2086C104.595 20.2102 105.22 20.1433 105.832 20.0089C106.402 19.8871 106.948 19.6751 107.45 19.3809C107.906 19.1167 108.293 18.7494 108.58 18.3083C108.87 17.8365 109.015 17.2904 108.999 16.7371C109.016 16.2277 108.88 15.7249 108.608 15.294Z" fill="#F75252"/>
</svg>
