<svg width="105" height="106" viewBox="0 0 105 106" fill="none" xmlns="http://www.w3.org/2000/svg">
<path d="M100.417 35.284L59.0273 2.35657C57.1069 0.830629 54.7263 0 52.2734 0C49.8205 0 47.4399 0.830629 45.5194 2.35657L4.1091 35.284C2.82902 36.2995 1.79469 37.591 1.08321 39.0619C0.371729 40.5329 0.00145954 42.1455 0 43.7795V89.9964C0 94.2408 1.68609 98.3114 4.68736 101.313C7.68862 104.314 11.7592 106 16.0036 106H32.5115L43.5321 94.9668L42.2044 93.6391H23.2219C20.3443 93.6391 17.5846 92.4963 15.5494 90.4619C13.5143 88.4276 12.3704 85.6683 12.3693 82.7907V49.7415C12.3689 48.108 12.7374 46.4955 13.4475 45.0245C14.1576 43.5534 15.1908 42.2617 16.47 41.246L45.5194 18.1375C47.4389 16.6095 49.8199 15.7775 52.2734 15.7775C54.7269 15.7775 57.1078 16.6095 59.0273 18.1375L88.0768 41.246C89.3548 42.2626 90.3869 43.5545 91.0961 45.0254C91.8054 46.4964 92.1736 48.1084 92.1733 49.7415V82.7739C92.1733 84.1989 91.8925 85.6099 91.3471 86.9264C90.8016 88.2428 90.0022 89.4389 88.9944 90.4464C87.9865 91.4538 86.7901 92.2528 85.4735 92.7977C84.1568 93.3426 82.7457 93.6228 81.3207 93.6223H62.3382L49.9983 105.983H88.5389C90.6404 105.983 92.7212 105.569 94.6626 104.765C96.604 103.961 98.368 102.782 99.8537 101.296C101.339 99.8095 102.518 98.0452 103.322 96.1036C104.125 94.1619 104.539 92.081 104.538 89.9796V43.7627C104.533 42.1305 104.159 40.5206 103.446 39.0526C102.732 37.5847 101.697 36.2965 100.417 35.284Z" fill="#F75252"/>
<path d="M78.9887 59.4722C78.6489 57.815 78.1508 56.1942 77.5013 54.6321C75.9593 50.8973 73.6079 47.5512 70.6164 44.8351C67.625 42.119 64.0681 40.1005 60.2023 38.9252C56.3365 37.7498 52.258 37.4469 48.261 38.0383C44.264 38.6297 40.448 40.1006 37.0881 42.3451C33.7283 44.5895 30.9083 47.5515 28.8316 51.0175C26.7548 54.4835 25.4731 58.3672 25.0787 62.3884C24.6843 66.4097 25.1871 70.4683 26.5508 74.2718C27.9146 78.0752 30.1053 81.5287 32.9651 84.3831L43.5361 94.95L32.5155 105.983H49.9981L62.3464 93.6223L68.531 87.4418L71.7116 84.2571C74.8792 81.0484 77.2031 77.1053 78.4758 72.7798C79.7485 68.4543 79.9305 63.881 79.0055 59.468L78.9887 59.4722ZM62.8338 75.6439L52.2753 86.2066L43.6958 77.6355L41.7 75.6439C40.28 74.2645 39.1484 72.6166 38.3709 70.7959C37.5934 68.9752 37.1857 67.0182 37.1713 65.0385C37.1569 63.0588 37.5363 61.0961 38.2872 59.2643C39.0382 57.4325 40.1458 55.7684 41.5457 54.3685C42.9456 52.9686 44.6098 51.861 46.4415 51.11C48.2733 50.3591 50.236 49.9797 52.2157 49.9941C54.1954 50.0085 56.1524 50.4162 57.9731 51.1937C59.7938 51.9711 61.4417 53.1028 62.8212 54.5228C63.4866 55.1881 64.0886 55.9139 64.6194 56.6908C66.5688 59.5667 67.4557 63.0318 67.1275 66.4907C66.7994 69.9495 65.2767 73.186 62.8212 75.6439H62.8338Z" fill="#FAB0A8"/>
</svg>
